<svg xmlns="http://www.w3.org/2000/svg" xmlns:xlink="http://www.w3.org/1999/xlink" width="1080" zoomAndPan="magnify" viewBox="0 0 810 809.999993" height="1080" preserveAspectRatio="xMidYMid meet" version="1.0"><defs><filter x="0%" y="0%" width="100%" height="100%" id="2bea0ce373"><feColorMatrix values="0 0 0 0 1 0 0 0 0 1 0 0 0 0 1 0 0 0 1 0" color-interpolation-filters="sRGB"/></filter><mask id="8261b89e31"><g filter="url(#2bea0ce373)"><rect x="-81" width="972" fill="#000000" y="-80.999999" height="971.999992" fill-opacity="0.44"/></g></mask><clipPath id="366df308be"><path d="M 513 463 L 616 463 L 616 576 L 513 576 Z M 513 463 " clip-rule="nonzero"/></clipPath><clipPath id="f52a91a5fb"><path d="M 0.277344 276.378906 L 773.191406 1.015625 L 998.96875 634.75 L 226.054688 910.113281 Z M 0.277344 276.378906 " clip-rule="nonzero"/></clipPath><clipPath id="a68654de75"><path d="M 0.277344 276.378906 L 773.191406 1.015625 L 998.96875 634.75 L 226.054688 910.113281 Z M 0.277344 276.378906 " clip-rule="nonzero"/></clipPath><clipPath id="51a88de0f3"><path d="M 314 185 L 472 185 L 472 256 L 314 256 Z M 314 185 " clip-rule="nonzero"/></clipPath><clipPath id="e0753db390"><path d="M 0.277344 276.378906 L 773.191406 1.015625 L 998.96875 634.75 L 226.054688 910.113281 Z M 0.277344 276.378906 " clip-rule="nonzero"/></clipPath><clipPath id="4cf558aacf"><path d="M 0.277344 276.378906 L 773.191406 1.015625 L 998.96875 634.75 L 226.054688 910.113281 Z M 0.277344 276.378906 " clip-rule="nonzero"/></clipPath><clipPath id="6a2e053b97"><path d="M 1 67 L 594 67 L 594 342 L 1 342 Z M 1 67 " clip-rule="nonzero"/></clipPath><clipPath id="9371bafd97"><path d="M 0.277344 276.378906 L 773.191406 1.015625 L 998.96875 634.75 L 226.054688 910.113281 Z M 0.277344 276.378906 " clip-rule="nonzero"/></clipPath><clipPath id="ee7718aa08"><path d="M 0.277344 276.378906 L 773.191406 1.015625 L 998.96875 634.75 L 226.054688 910.113281 Z M 0.277344 276.378906 " clip-rule="nonzero"/></clipPath><clipPath id="a8c2844aeb"><path d="M 326 476 L 419 476 L 419 576 L 326 576 Z M 326 476 " clip-rule="nonzero"/></clipPath><clipPath id="97e9c727d1"><path d="M 0.277344 276.378906 L 773.191406 1.015625 L 998.96875 634.75 L 226.054688 910.113281 Z M 0.277344 276.378906 " clip-rule="nonzero"/></clipPath><clipPath id="a560d0b4a4"><path d="M 0.277344 276.378906 L 773.191406 1.015625 L 998.96875 634.75 L 226.054688 910.113281 Z M 0.277344 276.378906 " clip-rule="nonzero"/></clipPath><clipPath id="e5768cf5ad"><path d="M 616 3 L 774 3 L 774 266 L 616 266 Z M 616 3 " clip-rule="nonzero"/></clipPath><clipPath id="c23d11c9fa"><path d="M 0.277344 276.378906 L 773.191406 1.015625 L 998.96875 634.75 L 226.054688 910.113281 Z M 0.277344 276.378906 " clip-rule="nonzero"/></clipPath><clipPath id="bbc5af4b28"><path d="M 0.277344 276.378906 L 773.191406 1.015625 L 998.96875 634.75 L 226.054688 910.113281 Z M 0.277344 276.378906 " clip-rule="nonzero"/></clipPath><clipPath id="adaa57166d"><path d="M 153 207 L 491 207 L 491 401 L 153 401 Z M 153 207 " clip-rule="nonzero"/></clipPath><clipPath id="0b8aacf8ee"><path d="M 0.277344 276.378906 L 773.191406 1.015625 L 998.96875 634.75 L 226.054688 910.113281 Z M 0.277344 276.378906 " clip-rule="nonzero"/></clipPath><clipPath id="6a0aab43ca"><path d="M 0.277344 276.378906 L 773.191406 1.015625 L 998.96875 634.75 L 226.054688 910.113281 Z M 0.277344 276.378906 " clip-rule="nonzero"/></clipPath><clipPath id="0b4cab0c56"><path d="M 566 283 L 712 283 L 712 454 L 566 454 Z M 566 283 " clip-rule="nonzero"/></clipPath><clipPath id="3916d0cd96"><path d="M 0.277344 276.378906 L 773.191406 1.015625 L 998.96875 634.75 L 226.054688 910.113281 Z M 0.277344 276.378906 " clip-rule="nonzero"/></clipPath><clipPath id="9abcec96ef"><path d="M 0.277344 276.378906 L 773.191406 1.015625 L 998.96875 634.75 L 226.054688 910.113281 Z M 0.277344 276.378906 " clip-rule="nonzero"/></clipPath><clipPath id="41010d3b32"><path d="M 103 342 L 442 342 L 442 536 L 103 536 Z M 103 342 " clip-rule="nonzero"/></clipPath><clipPath id="69557007aa"><path d="M 0.277344 276.378906 L 773.191406 1.015625 L 998.96875 634.75 L 226.054688 910.113281 Z M 0.277344 276.378906 " clip-rule="nonzero"/></clipPath><clipPath id="7b2be56fa2"><path d="M 0.277344 276.378906 L 773.191406 1.015625 L 998.96875 634.75 L 226.054688 910.113281 Z M 0.277344 276.378906 " clip-rule="nonzero"/></clipPath><clipPath id="c6c03b5a6c"><path d="M 506 548 L 674 548 L 674 765 L 506 765 Z M 506 548 " clip-rule="nonzero"/></clipPath><clipPath id="7a34934fa6"><path d="M 0.277344 276.378906 L 773.191406 1.015625 L 998.96875 634.75 L 226.054688 910.113281 Z M 0.277344 276.378906 " clip-rule="nonzero"/></clipPath><clipPath id="eb1848dbfd"><path d="M 0.277344 276.378906 L 773.191406 1.015625 L 998.96875 634.75 L 226.054688 910.113281 Z M 0.277344 276.378906 " clip-rule="nonzero"/></clipPath><clipPath id="27a6a650d2"><rect x="0" width="801" y="0" height="780"/></clipPath><clipPath id="806977b44b"><path d="M 526 473 L 629 473 L 629 586 L 526 586 Z M 526 473 " clip-rule="nonzero"/></clipPath><clipPath id="2b756484a7"><path d="M 13.695312 286.304688 L 786.605469 10.941406 L 1012.386719 644.671875 L 239.472656 920.039062 Z M 13.695312 286.304688 " clip-rule="nonzero"/></clipPath><clipPath id="9ddc133e36"><path d="M 13.695312 286.304688 L 786.605469 10.941406 L 1012.386719 644.671875 L 239.472656 920.039062 Z M 13.695312 286.304688 " clip-rule="nonzero"/></clipPath><clipPath id="6a8ec9a0b3"><path d="M 327 195 L 485 195 L 485 266 L 327 266 Z M 327 195 " clip-rule="nonzero"/></clipPath><clipPath id="d7f874a2ba"><path d="M 13.695312 286.304688 L 786.605469 10.941406 L 1012.386719 644.671875 L 239.472656 920.039062 Z M 13.695312 286.304688 " clip-rule="nonzero"/></clipPath><clipPath id="dd3c4518a4"><path d="M 13.695312 286.304688 L 786.605469 10.941406 L 1012.386719 644.671875 L 239.472656 920.039062 Z M 13.695312 286.304688 " clip-rule="nonzero"/></clipPath><clipPath id="737e4c5719"><path d="M 14 77 L 607 77 L 607 352 L 14 352 Z M 14 77 " clip-rule="nonzero"/></clipPath><clipPath id="3cc6885cc4"><path d="M 13.695312 286.304688 L 786.605469 10.941406 L 1012.386719 644.671875 L 239.472656 920.039062 Z M 13.695312 286.304688 " clip-rule="nonzero"/></clipPath><clipPath id="c002053989"><path d="M 13.695312 286.304688 L 786.605469 10.941406 L 1012.386719 644.671875 L 239.472656 920.039062 Z M 13.695312 286.304688 " clip-rule="nonzero"/></clipPath><clipPath id="ebd1f8ad85"><path d="M 339 486 L 432 486 L 432 586 L 339 586 Z M 339 486 " clip-rule="nonzero"/></clipPath><clipPath id="0eee5c420c"><path d="M 13.695312 286.304688 L 786.605469 10.941406 L 1012.386719 644.671875 L 239.472656 920.039062 Z M 13.695312 286.304688 " clip-rule="nonzero"/></clipPath><clipPath id="68b61d0846"><path d="M 13.695312 286.304688 L 786.605469 10.941406 L 1012.386719 644.671875 L 239.472656 920.039062 Z M 13.695312 286.304688 " clip-rule="nonzero"/></clipPath><clipPath id="62669b93fd"><path d="M 629 13 L 788 13 L 788 276 L 629 276 Z M 629 13 " clip-rule="nonzero"/></clipPath><clipPath id="625883e0e0"><path d="M 13.695312 286.304688 L 786.605469 10.941406 L 1012.386719 644.671875 L 239.472656 920.039062 Z M 13.695312 286.304688 " clip-rule="nonzero"/></clipPath><clipPath id="70c6da6c4c"><path d="M 13.695312 286.304688 L 786.605469 10.941406 L 1012.386719 644.671875 L 239.472656 920.039062 Z M 13.695312 286.304688 " clip-rule="nonzero"/></clipPath><clipPath id="0019e7980f"><path d="M 166 217 L 504 217 L 504 411 L 166 411 Z M 166 217 " clip-rule="nonzero"/></clipPath><clipPath id="8169fc018c"><path d="M 13.695312 286.304688 L 786.605469 10.941406 L 1012.386719 644.671875 L 239.472656 920.039062 Z M 13.695312 286.304688 " clip-rule="nonzero"/></clipPath><clipPath id="94531a39e3"><path d="M 13.695312 286.304688 L 786.605469 10.941406 L 1012.386719 644.671875 L 239.472656 920.039062 Z M 13.695312 286.304688 " clip-rule="nonzero"/></clipPath><clipPath id="c9ab8e1b90"><path d="M 580 292 L 725 292 L 725 464 L 580 464 Z M 580 292 " clip-rule="nonzero"/></clipPath><clipPath id="a5b3561ed5"><path d="M 13.695312 286.304688 L 786.605469 10.941406 L 1012.386719 644.671875 L 239.472656 920.039062 Z M 13.695312 286.304688 " clip-rule="nonzero"/></clipPath><clipPath id="5e17c215b6"><path d="M 13.695312 286.304688 L 786.605469 10.941406 L 1012.386719 644.671875 L 239.472656 920.039062 Z M 13.695312 286.304688 " clip-rule="nonzero"/></clipPath><clipPath id="7349b59799"><path d="M 117 352 L 456 352 L 456 546 L 117 546 Z M 117 352 " clip-rule="nonzero"/></clipPath><clipPath id="6e9dbde6ee"><path d="M 13.695312 286.304688 L 786.605469 10.941406 L 1012.386719 644.671875 L 239.472656 920.039062 Z M 13.695312 286.304688 " clip-rule="nonzero"/></clipPath><clipPath id="3ac4d6eae0"><path d="M 13.695312 286.304688 L 786.605469 10.941406 L 1012.386719 644.671875 L 239.472656 920.039062 Z M 13.695312 286.304688 " clip-rule="nonzero"/></clipPath><clipPath id="ff59f39f2d"><path d="M 520 558 L 688 558 L 688 775 L 520 775 Z M 520 558 " clip-rule="nonzero"/></clipPath><clipPath id="0009e2a838"><path d="M 13.695312 286.304688 L 786.605469 10.941406 L 1012.386719 644.671875 L 239.472656 920.039062 Z M 13.695312 286.304688 " clip-rule="nonzero"/></clipPath><clipPath id="459f951219"><path d="M 13.695312 286.304688 L 786.605469 10.941406 L 1012.386719 644.671875 L 239.472656 920.039062 Z M 13.695312 286.304688 " clip-rule="nonzero"/></clipPath></defs><g mask="url(#8261b89e31)"><g transform="matrix(1, 0, 0, 1, 9, 30)"><g clip-path="url(#27a6a650d2)"><g clip-path="url(#366df308be)"><g clip-path="url(#f52a91a5fb)"><g clip-path="url(#a68654de75)"><path fill="#262626" d="M 520.8125 463.816406 L 513.128906 575.160156 C 528.066406 568.316406 540.820312 558.996094 553.308594 549.550781 C 564.398438 541.039062 610.285156 522.300781 615.398438 512.875 C 603.070312 511.1875 528.273438 461.59375 520.8125 463.816406 Z M 520.8125 463.816406 " fill-opacity="1" fill-rule="nonzero"/></g></g></g><g clip-path="url(#51a88de0f3)"><g clip-path="url(#e0753db390)"><g clip-path="url(#4cf558aacf)"><path fill="#262626" d="M 464.875 197.675781 C 456.714844 194.285156 448.847656 186.226562 443.136719 185.4375 C 426.789062 183.441406 343.148438 229.746094 325.328125 244.351562 C 320.109375 248.601562 316.691406 252.421875 314.238281 255.902344 L 471.519531 199.871094 C 469.441406 199.523438 467.421875 198.722656 464.875 197.675781 Z M 464.875 197.675781 " fill-opacity="1" fill-rule="nonzero"/></g></g></g><g clip-path="url(#6a2e053b97)"><g clip-path="url(#9371bafd97)"><g clip-path="url(#ee7718aa08)"><path fill="#262626" d="M 409.058594 133.066406 L 1.011719 278.441406 L 74.847656 341.191406 L 259.113281 275.542969 C 258.136719 272.199219 257.480469 268.523438 257.402344 264.640625 C 255.644531 238.984375 272.507812 237.539062 296.589844 225.265625 C 328.039062 209.28125 354 171.796875 386.363281 149.839844 C 420.128906 126.949219 443.863281 135.652344 494.898438 140.496094 C 522.132812 143.171875 497.503906 150.863281 545.746094 149.097656 C 567.414062 148.328125 584.285156 150.570312 585.210938 126.347656 C 586.054688 104.328125 575.09375 93.679688 588.210938 73.800781 C 589.785156 71.503906 591.421875 69.398438 593.132812 67.484375 Z M 409.058594 133.066406 " fill-opacity="1" fill-rule="nonzero"/></g></g></g><g clip-path="url(#a8c2844aeb)"><g clip-path="url(#97e9c727d1)"><g clip-path="url(#a560d0b4a4)"><path fill="#262626" d="M 326.285156 502.492188 L 339.390625 513.679688 L 412.042969 575.550781 L 418.210938 573.351562 C 417.710938 561.582031 418.671875 551.46875 417.359375 538.035156 C 416.71875 531.964844 414.09375 523.992188 410.8125 515.386719 C 404.378906 501.605469 401.199219 488.402344 400.296875 476.125 Z M 326.285156 502.492188 " fill-opacity="1" fill-rule="evenodd"/></g></g></g><g clip-path="url(#e5768cf5ad)"><g clip-path="url(#c23d11c9fa)"><g clip-path="url(#bbc5af4b28)"><path fill="#262626" d="M 749.160156 136.578125 L 773.734375 3.140625 L 642.859375 49.769531 C 694.757812 55.824219 684.992188 119.253906 687.753906 127.613281 L 680.742188 148.789062 C 668.726562 184.566406 665.574219 185.472656 637.242188 176.667969 C 625.46875 183.25 624.488281 189.03125 616.441406 197.546875 C 637.8125 239.238281 653.441406 231.28125 667.152344 246.597656 C 674.839844 255.371094 674.078125 259.335938 684.039062 265.34375 C 701.929688 253.976562 715.125 222.121094 719.070312 209.421875 C 727.445312 182.324219 711.292969 174.179688 716.441406 141.066406 C 734.394531 132.933594 731.769531 128.003906 749.160156 136.578125 Z M 749.160156 136.578125 " fill-opacity="1" fill-rule="evenodd"/></g></g></g><g clip-path="url(#adaa57166d)"><g clip-path="url(#0b8aacf8ee)"><g clip-path="url(#6a0aab43ca)"><path fill="#262626" d="M 296.761719 287.328125 C 282.742188 297.96875 271.898438 296.183594 265.0625 287.976562 L 153.078125 327.875 L 238.839844 400.929688 L 445.847656 327.179688 C 455.054688 296.3125 466.34375 256.667969 473.992188 241.5625 C 479.714844 230.183594 487.941406 217.914062 490.191406 207.769531 L 307.273438 272.9375 C 305.6875 277.628906 303.453125 282.335938 296.761719 287.328125 Z M 296.761719 287.328125 " fill-opacity="1" fill-rule="evenodd"/></g></g></g><g clip-path="url(#0b4cab0c56)"><g clip-path="url(#3916d0cd96)"><g clip-path="url(#9abcec96ef)"><path fill="#262626" d="M 690.828125 334.386719 C 679.875 327.429688 663.875 317.273438 650.0625 309.597656 C 616.148438 290.617188 620.226562 287.425781 612.371094 283.058594 C 599.269531 297.5 594.789062 325.160156 566.746094 352.53125 L 567.390625 352.515625 C 567.789062 353.027344 568.066406 353.796875 568.464844 354.304688 C 568.863281 354.816406 569.070312 355.394531 569.46875 355.902344 L 569.535156 356.097656 L 569.605469 356.289062 C 570.003906 356.800781 570.210938 357.378906 570.609375 357.886719 L 570.675781 358.078125 C 571.074219 358.589844 571.28125 359.167969 571.613281 359.484375 L 571.75 359.871094 C 572.148438 360.378906 572.285156 360.765625 572.683594 361.273438 L 573.082031 361.785156 L 573.878906 362.804688 L 574.417969 363.699219 L 574.484375 363.890625 L 574.554688 364.082031 L 574.621094 364.277344 L 575.226562 365.363281 L 575.296875 365.558594 L 575.363281 365.75 L 575.433594 365.941406 L 576.230469 366.960938 L 576.300781 367.15625 L 576.367188 367.347656 L 576.4375 367.539062 L 576.503906 367.734375 C 598.492188 398.347656 628.273438 420.96875 661.46875 439.769531 L 662.253906 440.140625 L 662.320312 440.335938 L 662.582031 440.457031 L 663.367188 440.832031 C 668.761719 444.992188 677.773438 448.949219 687.375 453.347656 L 700.464844 381.566406 L 711.46875 321.605469 C 707.703125 333.589844 702.460938 330.460938 690.828125 334.386719 Z M 690.828125 334.386719 " fill-opacity="1" fill-rule="evenodd"/></g></g></g><g clip-path="url(#41010d3b32)"><g clip-path="url(#69557007aa)"><g clip-path="url(#7b2be56fa2)"><path fill="#000000" d="M 419.519531 397.160156 L 419.765625 396.640625 L 420.265625 395.59375 L 420.511719 395.070312 L 420.761719 394.546875 L 421.007812 394.023438 L 421.503906 392.980469 L 421.753906 392.457031 L 422 391.933594 L 422.25 391.410156 L 422.496094 390.886719 L 422.800781 389.910156 L 423.050781 389.386719 L 423.296875 388.863281 L 424.097656 386.84375 L 424.34375 386.320312 L 424.59375 385.796875 L 425.089844 384.75 L 425.335938 384.226562 L 425.585938 383.707031 L 425.835938 383.183594 L 425.957031 382.921875 L 426.332031 382.136719 L 426.578125 381.613281 L 426.828125 381.089844 L 427.074219 380.570312 L 427.324219 380.046875 L 428.066406 378.476562 L 428.316406 377.953125 L 428.5625 377.429688 L 428.8125 376.910156 L 429.308594 375.863281 L 429.554688 375.339844 L 429.804688 374.816406 L 430.050781 374.292969 L 430.550781 373.25 L 430.796875 372.726562 L 431.046875 372.203125 L 431.292969 371.679688 L 432.039062 370.113281 L 432.285156 369.589844 L 432.535156 369.066406 L 433.402344 367.234375 L 433.527344 366.976562 L 433.652344 366.714844 L 433.773438 366.453125 L 434.574219 364.429688 C 436.863281 359.269531 438.890625 353.984375 440.851562 348.507812 L 439.75 348.46875 C 440.355469 346.511719 441.15625 344.492188 441.695312 342.34375 L 103.808594 462.722656 L 189.570312 535.777344 L 399.855469 460.859375 C 401.414062 439.015625 409.46875 418.335938 418.996094 396.914062 Z M 419.519531 397.160156 " fill-opacity="1" fill-rule="evenodd"/></g></g></g><g clip-path="url(#c6c03b5a6c)"><g clip-path="url(#7a34934fa6)"><g clip-path="url(#eb1848dbfd)"><path fill="#000000" d="M 522.210938 629.917969 C 514.371094 639.011719 509.5625 647.457031 506.828125 656.253906 L 634.019531 764.507812 L 673.664062 548.375 C 620.980469 573.660156 549.445312 597.84375 522.210938 629.917969 Z M 522.210938 629.917969 " fill-opacity="1" fill-rule="evenodd"/></g></g></g></g></g></g><g clip-path="url(#806977b44b)"><g clip-path="url(#2b756484a7)"><g clip-path="url(#9ddc133e36)"><path fill="#343434" d="M 534.226562 473.742188 L 526.542969 585.085938 C 541.484375 578.242188 554.234375 568.921875 566.726562 559.472656 C 577.8125 550.960938 623.703125 532.222656 628.816406 522.800781 C 616.484375 521.113281 541.691406 471.515625 534.226562 473.742188 Z M 534.226562 473.742188 " fill-opacity="1" fill-rule="nonzero"/></g></g></g><g clip-path="url(#6a8ec9a0b3)"><g clip-path="url(#d7f874a2ba)"><g clip-path="url(#dd3c4518a4)"><path fill="#343434" d="M 478.292969 207.601562 C 470.132812 204.207031 462.265625 196.148438 456.554688 195.363281 C 440.203125 193.367188 356.566406 239.671875 338.746094 254.277344 C 333.523438 258.523438 330.109375 262.347656 327.65625 265.828125 L 484.9375 209.792969 C 482.859375 209.449219 480.835938 208.648438 478.292969 207.601562 Z M 478.292969 207.601562 " fill-opacity="1" fill-rule="nonzero"/></g></g></g><g clip-path="url(#737e4c5719)"><g clip-path="url(#3cc6885cc4)"><g clip-path="url(#c002053989)"><path fill="#343434" d="M 422.472656 142.992188 L 14.425781 288.363281 L 88.261719 351.117188 L 272.53125 285.46875 C 271.554688 282.121094 270.898438 278.449219 270.816406 274.566406 C 269.0625 248.910156 285.925781 247.464844 310.007812 235.191406 C 341.457031 219.207031 367.414062 181.722656 399.777344 159.765625 C 433.546875 136.875 457.28125 145.578125 508.3125 150.421875 C 535.550781 153.097656 510.921875 160.789062 559.164062 159.023438 C 580.828125 158.253906 597.703125 160.496094 598.628906 136.273438 C 599.472656 114.25 588.511719 103.605469 601.628906 83.726562 C 603.199219 81.425781 604.839844 79.324219 606.546875 77.410156 Z M 422.472656 142.992188 " fill-opacity="1" fill-rule="nonzero"/></g></g></g><g clip-path="url(#ebd1f8ad85)"><g clip-path="url(#0eee5c420c)"><g clip-path="url(#68b61d0846)"><path fill="#b91037" d="M 339.699219 512.417969 L 352.808594 523.605469 L 425.460938 585.472656 L 431.628906 583.277344 C 431.128906 571.507812 432.085938 561.394531 430.777344 547.957031 C 430.132812 541.886719 427.511719 533.917969 424.226562 525.3125 C 417.796875 511.527344 414.613281 498.328125 413.714844 486.050781 Z M 339.699219 512.417969 " fill-opacity="1" fill-rule="evenodd"/></g></g></g><g clip-path="url(#62669b93fd)"><g clip-path="url(#625883e0e0)"><g clip-path="url(#70c6da6c4c)"><path fill="#b91037" d="M 762.578125 146.503906 L 787.152344 13.066406 L 656.277344 59.695312 C 708.175781 65.75 698.410156 129.179688 701.167969 137.535156 L 694.160156 158.714844 C 682.144531 194.492188 678.992188 195.394531 650.660156 186.59375 C 638.886719 193.175781 637.902344 198.957031 629.859375 207.46875 C 651.230469 249.164062 666.859375 241.207031 680.570312 256.523438 C 688.257812 265.296875 687.496094 269.261719 697.457031 275.269531 C 715.34375 263.898438 728.542969 232.046875 732.488281 219.34375 C 740.863281 192.25 724.710938 184.105469 729.855469 150.992188 C 747.8125 142.859375 745.1875 137.929688 762.578125 146.503906 Z M 762.578125 146.503906 " fill-opacity="1" fill-rule="evenodd"/></g></g></g><g clip-path="url(#0019e7980f)"><g clip-path="url(#8169fc018c)"><g clip-path="url(#94531a39e3)"><path fill="#b91037" d="M 310.179688 297.25 C 296.160156 307.894531 285.3125 306.109375 278.480469 297.902344 L 166.492188 337.800781 L 252.253906 410.855469 L 459.265625 337.105469 C 468.46875 306.238281 479.757812 266.59375 487.410156 251.488281 C 493.132812 240.109375 501.359375 227.835938 503.609375 217.695312 L 320.691406 282.863281 C 319.105469 287.554688 316.871094 292.261719 310.179688 297.25 Z M 310.179688 297.25 " fill-opacity="1" fill-rule="evenodd"/></g></g></g><g clip-path="url(#c9ab8e1b90)"><g clip-path="url(#a5b3561ed5)"><g clip-path="url(#5e17c215b6)"><path fill="#b91037" d="M 704.242188 344.3125 C 693.292969 337.355469 677.292969 327.199219 663.480469 319.519531 C 629.566406 300.542969 633.644531 297.351562 625.789062 292.980469 C 612.6875 307.425781 608.207031 335.085938 580.160156 362.453125 L 580.808594 362.441406 C 581.207031 362.949219 581.480469 363.722656 581.878906 364.230469 C 582.28125 364.742188 582.484375 365.320312 582.882812 365.828125 L 582.953125 366.023438 L 583.023438 366.214844 C 583.421875 366.722656 583.625 367.300781 584.023438 367.8125 L 584.09375 368.003906 C 584.492188 368.515625 584.699219 369.09375 585.027344 369.410156 L 585.167969 369.792969 C 585.566406 370.304688 585.703125 370.691406 586.101562 371.199219 L 586.5 371.707031 L 587.296875 372.726562 L 587.832031 373.621094 L 587.902344 373.816406 L 587.96875 374.007812 L 588.039062 374.203125 L 588.644531 375.289062 L 588.710938 375.480469 L 588.78125 375.675781 L 588.851562 375.867188 L 589.648438 376.886719 L 589.714844 377.078125 L 589.785156 377.273438 L 589.855469 377.464844 L 589.921875 377.65625 C 611.90625 408.273438 641.6875 430.894531 674.886719 449.695312 L 675.671875 450.066406 L 675.738281 450.261719 L 676 450.382812 L 676.785156 450.757812 C 682.175781 454.917969 691.1875 458.875 700.792969 463.273438 L 713.882812 391.488281 L 724.886719 331.53125 C 721.117188 343.515625 715.878906 340.386719 704.242188 344.3125 Z M 704.242188 344.3125 " fill-opacity="1" fill-rule="evenodd"/></g></g></g><g clip-path="url(#7349b59799)"><g clip-path="url(#6e9dbde6ee)"><g clip-path="url(#3ac4d6eae0)"><path fill="#343434" d="M 432.9375 407.085938 L 433.183594 406.5625 L 433.679688 405.519531 L 433.929688 404.996094 L 434.175781 404.472656 L 434.425781 403.949219 L 434.921875 402.902344 L 435.167969 402.382812 L 435.417969 401.859375 L 435.664062 401.335938 L 435.914062 400.8125 L 436.21875 399.835938 L 436.464844 399.3125 L 436.714844 398.789062 L 437.515625 396.765625 L 437.761719 396.246094 L 438.011719 395.722656 L 438.507812 394.675781 L 438.753906 394.152344 L 439.003906 393.628906 L 439.25 393.109375 L 439.375 392.847656 L 439.746094 392.0625 L 439.996094 391.539062 L 440.242188 391.015625 L 440.617188 390.230469 L 440.738281 389.96875 L 441.484375 388.402344 L 441.730469 387.878906 L 442.230469 386.832031 L 442.726562 385.789062 L 442.972656 385.265625 L 443.222656 384.742188 L 443.46875 384.21875 L 443.964844 383.171875 L 444.214844 382.652344 L 444.460938 382.128906 L 444.710938 381.605469 L 445.453125 380.035156 L 445.703125 379.515625 L 445.949219 378.992188 L 446.820312 377.160156 L 446.945312 376.898438 L 447.066406 376.636719 L 447.191406 376.375 L 447.992188 374.355469 C 450.28125 369.195312 452.308594 363.910156 454.265625 358.433594 L 453.164062 358.390625 C 453.773438 356.4375 454.574219 354.414062 455.109375 352.269531 L 117.222656 472.648438 L 202.984375 545.703125 L 413.273438 470.785156 C 414.832031 448.941406 422.886719 428.261719 432.414062 406.839844 Z M 432.9375 407.085938 " fill-opacity="1" fill-rule="evenodd"/></g></g></g><g clip-path="url(#ff59f39f2d)"><g clip-path="url(#0009e2a838)"><g clip-path="url(#459f951219)"><path fill="#343434" d="M 535.625 639.84375 C 527.789062 648.9375 522.976562 657.382812 520.246094 666.175781 L 647.4375 774.433594 L 687.078125 558.300781 C 634.398438 583.585938 562.863281 607.769531 535.625 639.84375 Z M 535.625 639.84375 " fill-opacity="1" fill-rule="evenodd"/></g></g></g></svg>